<?xml version="1.0" encoding="utf-8"?>
<!-- Generator: Adobe Illustrator 19.0.0, SVG Export Plug-In . SVG Version: 6.00 Build 0)  -->
<svg version="1.1" id="Layer_1" xmlns="http://www.w3.org/2000/svg" xmlns:xlink="http://www.w3.org/1999/xlink" x="0px" y="0px"
	 viewBox="-251 342 109 109" style="enable-background:new -251 342 109 109;" xml:space="preserve">
<style type="text/css">
	.st0{clip-path:url(#SVGID_2_);}
	.st1{fill:#6B21A8;}
</style>
<g>
	<defs>
		<rect id="SVGID_1_" x="-251" y="342" width="109" height="109"/>
	</defs>
	<clipPath id="SVGID_2_">
		<use xlink:href="#SVGID_1_"  style="overflow:visible;"/>
	</clipPath>
	<g class="st0">
		<path class="st1" d="M-151.1,361.4l-11.2-11.2c-1-0.9-2.2-1.4-3.6-1.4c-1.3,0-2.6,0.5-3.6,1.4l-10,10h-53.4
			c-1.6,0-3.1,0.6-4.3,1.8c-1.1,1.1-1.8,2.7-1.8,4.3v66.6c0,1.6,0.6,3.1,1.8,4.3c1.1,1.1,2.7,1.8,4.3,1.8h66.6
			c1.6,0,3.1-0.6,4.3-1.8c1.1-1.1,1.8-2.7,1.8-4.3v-55.2l9.1-9.1c0.9-0.9,1.5-2.2,1.5-3.6C-149.6,363.6-150.1,362.3-151.1,361.4z
			 M-194,402.9l-12.7,2.8l3-12.6l28.9-29l9.8,9.8L-194,402.9z M-161.7,370.6l-9.8-9.8l5.6-5.6l9.8,9.8L-161.7,370.6z"/>
	</g>
</g>
</svg>
