<?xml version="1.0" encoding="utf-8"?>
<!-- Generator: Adobe Illustrator 19.0.0, SVG Export Plug-In . SVG Version: 6.00 Build 0)  -->
<svg version="1.1" id="Layer_1" xmlns="http://www.w3.org/2000/svg" xmlns:xlink="http://www.w3.org/1999/xlink" x="0px" y="0px"
	 viewBox="-251 342 109 109" style="enable-background:new -251 342 109 109;" xml:space="preserve">
<style type="text/css">
	.st0{fill:#6B21A8;}
</style>
<path class="st0" d="M-222.8,349.8c-3.4,0-6.6,1.3-8.9,3.7c-2.4,2.4-3.7,5.6-3.7,8.9v68.1c0,3.4,1.3,6.6,3.7,8.9
	c2.4,2.4,5.6,3.7,8.9,3.7h37.2l-8.4-8.4c-0.8-0.8-1.5-1.8-1.9-2.8c-0.4-1.1-0.7-2.2-0.7-3.4c0-1.2,0.2-2.3,0.7-3.4
	c0.4-1.1,1.1-2,1.9-2.8c0.8-0.8,1.8-1.5,2.8-1.9c1.1-0.4,2.2-0.7,3.4-0.7c1.2,0,2.3,0.2,3.4,0.7c1.1,0.4,2,1.1,2.8,1.9l5.5,5.5
	l17.2-17.2c0.4-0.4,0.9-0.8,1.3-1.1v-47.2c0-3.4-1.3-6.6-3.7-8.9c-2.4-2.4-5.6-3.7-8.9-3.7H-222.8z M-210.1,376.1
	c0,1.3-0.5,2.5-1.4,3.4c-0.9,0.9-2.2,1.4-3.4,1.4s-2.5-0.5-3.4-1.4c-0.9-0.9-1.4-2.2-1.4-3.4c0-1.3,0.5-2.5,1.4-3.4
	c0.9-0.9,2.2-1.4,3.4-1.4s2.5,0.5,3.4,1.4C-210.6,373.5-210.1,374.8-210.1,376.1z M-215,401.4c-1.3,0-2.5-0.5-3.4-1.4
	c-0.9-0.9-1.4-2.2-1.4-3.4c0-1.3,0.5-2.5,1.4-3.4c0.9-0.9,2.2-1.4,3.4-1.4s2.5,0.5,3.4,1.4c0.9,0.9,1.4,2.2,1.4,3.4
	c0,1.3-0.5,2.5-1.4,3.4C-212.5,400.9-213.7,401.4-215,401.4z M-215,421.8c-1.3,0-2.5-0.5-3.4-1.4c-0.9-0.9-1.4-2.2-1.4-3.4
	c0-1.3,0.5-2.5,1.4-3.4c0.9-0.9,2.2-1.4,3.4-1.4s2.5,0.5,3.4,1.4c0.9,0.9,1.4,2.2,1.4,3.4c0,1.3-0.5,2.5-1.4,3.4
	C-212.5,421.3-213.7,421.8-215,421.8z M-201.4,373.1h25.3c0.8,0,1.5,0.3,2.1,0.9c0.5,0.5,0.9,1.3,0.9,2.1c0,0.8-0.3,1.5-0.9,2.1
	c-0.5,0.5-1.3,0.9-2.1,0.9h-25.3c-0.8,0-1.5-0.3-2.1-0.9c-0.5-0.5-0.9-1.3-0.9-2.1c0-0.8,0.3-1.5,0.9-2.1
	C-202.9,373.5-202.1,373.1-201.4,373.1z M-204.3,396.5c0-0.8,0.3-1.5,0.9-2.1c0.5-0.5,1.3-0.9,2.1-0.9h25.3c0.8,0,1.5,0.3,2.1,0.9
	c0.5,0.5,0.9,1.3,0.9,2.1c0,0.8-0.3,1.5-0.9,2.1c-0.5,0.5-1.3,0.9-2.1,0.9h-25.3c-0.8,0-1.5-0.3-2.1-0.9
	C-204,398-204.3,397.3-204.3,396.5z M-201.4,414h25.3c0.8,0,1.5,0.3,2.1,0.9c0.5,0.5,0.9,1.3,0.9,2.1c0,0.8-0.3,1.5-0.9,2.1
	c-0.5,0.5-1.3,0.9-2.1,0.9h-25.3c-0.8,0-1.5-0.3-2.1-0.9c-0.5-0.5-0.9-1.3-0.9-2.1c0-0.8,0.3-1.5,0.9-2.1
	C-202.9,414.3-202.1,414-201.4,414z M-174,442.4l23.4-23.4c0.3-0.3,0.5-0.6,0.7-0.9c0.2-0.4,0.2-0.7,0.3-1.1s-0.1-0.8-0.2-1.1
	c-0.1-0.4-0.4-0.7-0.6-1c-0.3-0.3-0.6-0.5-1-0.6c-0.4-0.1-0.8-0.2-1.1-0.2c-0.4,0-0.8,0.1-1.1,0.3c-0.4,0.2-0.7,0.4-0.9,0.7
	l-21.3,21.3l-9.6-9.6c-0.6-0.5-1.3-0.8-2-0.8c-0.8,0-1.5,0.3-2,0.9c-0.5,0.5-0.8,1.3-0.9,2c0,0.8,0.3,1.5,0.8,2l11.7,11.7
	c0.5,0.5,1.3,0.9,2.1,0.9S-174.5,442.9-174,442.4z"/>
</svg>
