<?xml version="1.0" encoding="utf-8"?>
<!-- Generator: Adobe Illustrator 19.0.0, SVG Export Plug-In . SVG Version: 6.00 Build 0)  -->
<svg version="1.1" id="Layer_1" xmlns="http://www.w3.org/2000/svg" xmlns:xlink="http://www.w3.org/1999/xlink" x="0px" y="0px"
	 viewBox="-251 342 109 109" style="enable-background:new -251 342 109 109;" xml:space="preserve">
<style type="text/css">
	.st0{fill:#6B21A8;}
</style>
<path class="st0" d="M-155.6,396.5v-27.3c0-5-4.1-9.1-9.1-9.1h-4.5v-4.5c0-2.5-2-4.5-4.5-4.5c-2.5,0-4.5,2-4.5,4.5v4.5h-36.3v-4.5
	c0-2.5-2-4.5-4.5-4.5c-2.5,0-4.5,2-4.5,4.5v4.5h-4.5c-5,0-9.1,4.1-9.1,9.1v63.6c0,5,4.1,9.1,9.1,9.1h31.8v-9.1h-31.8v-45.4h63.6v9.1
	H-155.6z M-182.3,432.8c-2.5,0-4.1,2.5-3.1,4.8c1.8,4,4.7,7.4,8.4,9.7c3.7,2.4,7.9,3.6,12.3,3.6c12.5,0,22.7-10.2,22.7-22.7
	c0-12.5-10.2-22.7-22.7-22.7c-6.2,0-11.8,2.5-15.9,6.5V409c0-1.9-1.5-3.4-3.4-3.4c-1.9,0-3.4,1.5-3.4,3.4v10.2c0,2.5,2,4.5,4.5,4.5
	h10.2c1.9,0,3.4-1.5,3.4-3.4c0-1.9-1.5-3.4-3.4-3.4h-3.2c2.9-2.8,6.8-4.5,11.1-4.5c8.8,0,15.9,7.1,15.9,15.9
	c0,8.8-7.1,15.9-15.9,15.9c-6.4,0-12-3.9-14.5-9.4c-0.3-0.6-0.7-1.1-1.2-1.5C-181,433-181.6,432.8-182.3,432.8z"/>
</svg>
