<?xml version="1.0" encoding="utf-8"?>
<!-- Generator: Adobe Illustrator 19.0.0, SVG Export Plug-In . SVG Version: 6.00 Build 0)  -->
<svg version="1.1" id="Layer_1" xmlns="http://www.w3.org/2000/svg" xmlns:xlink="http://www.w3.org/1999/xlink" x="0px" y="0px"
	 viewBox="-251 342 109 109" style="enable-background:new -251 342 109 109;" xml:space="preserve">
<style type="text/css">
	.st0{fill:#6B21A8;}
</style>
<path class="st0" d="M-169.3,392c6.8,0,13,2.1,18.2,5.7v-19.3c0-5-4-9.1-9.1-9.1h-18.2v-9.1c0-5-4-9.1-9.1-9.1h-18.2
	c-5,0-9.1,4-9.1,9.1v9.1h-18.2c-5,0-9,4-9,9.1l0,50c0,5,4,9.1,9.1,9.1h34.9c-2.3-4.8-3.3-10.2-3-15.5c0.3-5.4,2-10.5,4.9-15.1
	c2.9-4.5,6.8-8.3,11.5-10.9C-179.9,393.3-174.6,392-169.3,392z M-205.6,360.2h18.2v9.1h-18.2V360.2z"/>
<path class="st0" d="M-169.3,401c-12.5,0-22.7,10.2-22.7,22.7s10.2,22.7,22.7,22.7s22.7-10.2,22.7-22.7S-156.7,401-169.3,401z
	 M-161.8,434.4l-9.8-9.8v-14.5h4.5v12.7l8.4,8.4L-161.8,434.4z"/>
</svg>
