<?xml version="1.0" encoding="utf-8"?>
<!-- Generator: Adobe Illustrator 19.0.0, SVG Export Plug-In . SVG Version: 6.00 Build 0)  -->
<svg version="1.1" id="Layer_1" xmlns="http://www.w3.org/2000/svg" xmlns:xlink="http://www.w3.org/1999/xlink" x="0px" y="0px"
	 viewBox="0 0 612 792" style="enable-background:new 0 0 612 792;" xml:space="preserve">
<style type="text/css">
	.st0{fill:url(#SVGID_1_);}
</style>
<g>
	<linearGradient id="SVGID_1_" gradientUnits="userSpaceOnUse" x1="105.5679" y1="402.3254" x2="544.8488" y2="402.3254">
		<stop  offset="0" style="stop-color:#7A4D9C"/>
		<stop  offset="1" style="stop-color:#522672"/>
	</linearGradient>
	<path class="st0" d="M370,77.5c5.1,0,10.1,0,15.2,0c0.7,0.4,1.5,0.4,2.2,0.4c4,0.2,7.9,0.6,11.9,1c5.2,0.6,10.4,1.5,15.5,2.5
		c12.4,2.6,24.3,6.5,35.7,11.8c21.6,10,40.2,24.1,55.5,42.3c18.1,21.5,29.5,46.3,35.2,73.7c0.9,4.4,1.6,8.8,2.2,13.2
		c0.4,3.4,0.9,6.9,0.9,10.3c0,0.8,0,1.7,0.1,2.5c0,0.5,0,1,0.1,1.5c0.1,0.4,0.2,0.8,0.3,1.2c0,5.4,0,10.8,0,16.2
		c-0.2,0.6-0.4,1.3-0.4,2c0,1.5-0.1,3-0.1,4.6c0,1-0.1,2-0.2,3c-0.2,1.9-0.5,3.9-0.7,5.8c-0.7,5.8-1.9,11.5-3.3,17.1
		c-3.9,15.7-10,30.4-18.2,44.3c-8.2,14-18.1,26.6-29.5,38.2c-3.3,3.3-6.6,6.5-10,9.7c-10.4,9.9-21.2,19.4-32.4,28.3
		c-9.3,7.4-18.9,14.3-28.9,20.5c-11.1,6.9-22.6,12.7-34.8,17.4c-8.6,3.3-17,6.9-25.3,10.9c-16.9,8.1-32.9,17.6-47.9,28.7
		c-15.6,11.6-29.8,24.9-42.3,39.8c-13.8,16.5-25.1,34.5-34.3,53.9c-9.7,20.5-16.7,42-21.8,64.1c-1.6,7-3,14-4.2,21.1
		c-1.1,6.3-2,12.7-2.8,19c-0.6,4.9-1.4,9.7-2.5,14.5c-1.3,5.8-2.7,11.7-4,17.5c-0.3,1.5-0.8,2.9-1.3,4.4c-0.9,2.4-1.8,4.7-2.8,7.1
		c-0.1,0.3-0.3,0.6-0.4,0.9c0,0.1-0.1,0.1-0.2,0.1c-0.1,0-0.4-0.1-0.4-0.2c-0.3-0.7-0.6-1.4-0.9-2.1c-3.7-8.6-7.4-17.2-11.1-25.8
		c-6.4-14.9-12.9-29.7-19.3-44.6c-8.8-20.6-16.8-41.5-23.8-62.7c-8.5-25.8-15.7-52-21.2-78.7c-2.8-13.5-5.2-27-7.1-40.6
		c-0.9-6.7-1.8-13.4-2.5-20.1c-0.2-1.9-0.4-3.9-0.6-5.8c-0.3-2.6-0.5-5.2-0.8-7.8c-0.3-3-0.5-6.1-0.7-9.1c-0.3-3.6-0.6-7.2-0.8-10.9
		c-0.3-6.1-0.7-12.1-0.7-18.2c0-1.2,0-2.4-0.1-3.5c-0.1-0.8-0.2-1.7-0.4-2.5c-0.1-0.3-0.3-0.6-0.5-0.9c0-6.4,0-12.8,0-19.3
		c0.6-1.2,0.8-2.4,0.8-3.7c0-1.3,0.1-2.7,0.1-4c0-6,0.5-12,0.7-18c0-0.3,0-0.7,0.1-1c0.4-5.1,0.7-10.3,1.3-15.4
		c0.4-3.6,0.7-7.2,1.2-10.8c0.8-5.8,1.7-11.7,2.8-17.5c2-10.9,4.6-21.6,7.7-32.2c5.9-19.8,13.7-38.8,23.8-56.8
		c16.8-30.2,38.8-55.9,66-77.2c16.6-12.9,34.5-23.7,53.5-32.5c14.4-6.7,29.3-12.1,44.6-16.5c15.8-4.5,31.9-8.1,48.3-9.9
		c3.4-0.4,6.9-0.7,10.3-0.9c0.8,0,1.5-0.1,2.3-0.1C369.4,77.8,369.7,77.6,370,77.5z M189.7,382.7c0.2,6.5,0.4,13,0.6,19.5
		c0,0.5,0.1,1,0.1,1.5c0.3,4,0.5,8.1,0.8,12.1c0.2,2.9,0.4,5.9,0.7,8.8c0.4,4.3,0.9,8.6,1.3,12.8c0.5,5.7,1.4,11.4,2.4,17
		c0.8,4.3,1.5,8.6,2.3,13c0.4,2.2,0.7,4.3,1.1,6.5c0,0.2,0.2,0.5,0.4,0.6c0.2,0.1,0.5-0.1,0.6-0.2c0.4-0.4,0.8-0.9,1.1-1.4
		c12-14.9,25.5-28.3,40.4-40.4c11.5-9.4,23.7-17.9,36.4-25.7c12.2-7.5,24.7-14.3,37.4-20.8c12.9-6.5,25.9-12.7,39-18.8
		c5.7-2.6,11.4-5.2,16.9-8c8.9-4.5,17.4-9.6,25.4-15.6c5.6-4.2,10.9-8.8,15.7-14c6.7-7.3,13.1-14.8,19.1-22.6
		c5.8-7.7,11.3-15.6,15.9-24.1c3.6-6.5,6.7-13.3,9.1-20.3c2.3-6.8,3.7-13.9,4.2-21c0.3-5.2,0-10.3-0.8-15.4c-1.1-6.6-3-13-6-19
		c-4.9-10.1-12-18.5-20.9-25.4c-8-6.1-16.8-10.6-26.4-13.7c-5.5-1.8-11.2-3.1-17-4c-3.4-0.5-6.9-0.9-10.3-1.1
		c-8.4-0.4-16.9-0.2-25.3,0.9c-4.5,0.6-9,1.3-13.5,2.3c-10.3,2.3-20.4,5.5-30.1,9.6c-31.3,13.4-57.4,33.5-78.5,60.3
		c-9.5,12.1-17.4,25.3-23.3,39.6c-7.5,18.2-12.5,37.1-15.4,56.5c-0.7,4.5-1.2,9-1.7,13.6c-0.6,5.3-1,10.6-1.2,15.9
		C190,368.8,189.7,375.8,189.7,382.7z"/>
</g>
</svg>
